# xmcd
#
# Track frame offsets: 
#        150
#        4237
#        29575
#        63177
#        70717
#        89270
#        92077
#        112755
#        124015
#        136290
#        149730
#        182065
#
# Disc length: 2487 seconds
#
# Revision: 0
# Processed by: cddbd v1.5.2PL0 Copyright (c) Steve Scherf et al.
# Submitted via: ExactAudioCopy v1.0b3
#
DISCID=a209b50c
DTITLE=Kalle Sändare - Väggen é klar
DYEAR=1975
DGENRE=
TTITLE0=Telefonvakt
TTITLE1=Detta gällde Väggen é klar
TTITLE2=Ja de' va' ja' igen
TTITLE3=Josef Perssons automatiska telefonsvarare
TTITLE4=Bortsprungen hund i Jämtland
TTITLE5=Telefonvakt – ingenting kvar
TTITLE6=Symaskinen - Modell Husqvarna
TTITLE7=Telefonsvarare - Lite annat bara
TTITLE8=Fin hundkoja - Vinterbonad säljes billigt
TTITLE9=Telefonvakt - Det gäller kvällsskiftet
TTITLE10=Taklagsfesten
TTITLE11=Utländsk telefonvakt
EXTD=
EXTT0=
EXTT1=
EXTT2=
EXTT3=
EXTT4=
EXTT5=
EXTT6=
EXTT7=
EXTT8=
EXTT9=
EXTT10=
EXTT11=
PLAYORDER=
